#!OML:ASF H:\ManfredETheater\Project 1\Capture day 1\Session 1\subject.ASF
:FULLY-SPECIFIED
:DEGREES
300
root -11.5497 16.1147 -31.0346 -151.821 -27.6083 -187.681
lowerback 14.602 -3.54847 -6.0772
upperback -0.865126 -5.69768 1.36294
thorax -8.39175 -2.46231 6.1001
lowerneck -21.99 -0.180848 -1.71639
upperneck 2.32074 -0.648934 4.07747
head 4.15696 -0.282086 1.48262
rclavicle 4.17945e-014 -6.7388e-014
rhumerus -73.48 1.28325 -83.2705
rradius 79.4267
rwrist -17.3439
rhand -29.6162 6.10894
rfingers 7.12502
rthumb -2.94683 -23.8504
lclavicle 4.17945e-014 -6.7388e-014
lhumerus -23.8413 -14.7705 96.0741
lradius 123.952
lwrist 15.0495
lhand -25.9893 -9.12265
lfingers 7.12502
lthumb 0.556036 20.8564
rfemur -79.1003 -12.2165 22.83
rtibia 74.7557
rfoot -19.1412 -5.96371
rtoes -40.8277
lfemur -2.4821 -4.19888 -28.0625
ltibia 26.4721
lfoot -35.4879 3.77982
ltoes -8.0892
301
root -11.6433 16.0752 -31.2582 -151.725 -28.0727 -187.516
lowerback 14.727 -3.78409 -5.48952
upperback -0.874268 -5.89098 1.61632
thorax -8.47428 -2.57071 6.09397
lowerneck -21.9212 -0.0692174 -1.70399
upperneck 2.0862 -0.494997 3.87663
head 4.06688 -0.228139 1.43084
rclavicle -4.47266e-014 4.41302e-014
rhumerus -75.7876 1.89067 -83.2864
rradius 82.1146
rwrist -17.0803
rhand -29.5696 7.15047
rfingers 7.12502
rthumb -2.9018 -22.8095
lclavicle -4.47266e-014 4.41302e-014
lhumerus -23.4527 -15.4499 95.8511
lradius 127.586
lwrist 15.0463
lhand -26.0711 -10.0075
lfingers 7.12502
lthumb 0.477081 19.9717
rfemur -79.3544 -12.488 23.4314
rtibia 74.9054
rfoot -18.4665 -5.72251
rtoes -40.7636
lfemur -1.5771 -4.56493 -27.5814
ltibia 26.0421
lfoot -34.7708 3.24518
ltoes -9.28173
302
root -11.7391 16.0375 -31.4897 -151.65 -28.4928 -187.328
lowerback 14.8158 -4.00437 -4.9172
upperback -0.889824 -6.06397 1.87416
thorax -8.54643 -2.66974 6.09545
lowerneck -21.8366 0.0481383 -1.70309
upperneck 1.88493 -0.328745 3.6704
head 3.98508 -0.166676 1.38034
rclavicle 2.88238e-015 2.22639e-014
rhumerus -77.9809 2.47011 -83.3023
rradius 84.6045
rwrist -16.8622
rhand -29.569 8.13658
rfingers 7.12502
rthumb -2.90124 -21.8234
lclavicle 2.88238e-015 2.22639e-014
lhumerus -23.1848 -16.1846 95.5887
lradius 131.003
lwrist 14.5492
lhand -26.1542 -11.0784
lfingers 7.12502
lthumb 0.396844 18.901
rfemur -79.4564 -12.7229 24.05
rtibia 75.2158
rfoot -17.6204 -5.52352
rtoes -40.1829
lfemur -0.679182 -4.94616 -27.0983
ltibia 25.6605
lfoot -33.9064 2.69295
ltoes -10.5835
303
root -11.8371 16.0024 -31.7293 -151.59 -28.8494 -187.107
lowerback 14.8707 -4.19613 -4.36382
upperback -0.920294 -6.20085 2.13391
thorax -8.62029 -2.75076 6.10123
lowerneck -21.7336 0.162165 -1.71862
upperneck 1.71779 -0.160577 3.46167
head 3.91176 -0.102521 1.33179
rclavicle 6.66923e-014 1.59028e-015
rhumerus -80.0395 2.9944 -83.2995
rradius 86.8651
rwrist -16.6917
rhand -29.5948 9.04561
rfingers 7.12502
rthumb -2.92619 -20.9141
lclavicle 6.66923e-014 1.59028e-015
lhumerus -23.0645 -16.9911 95.3082
lradius 134.125
lwrist 13.6085
lhand -26.268 -12.3146
lfingers 7.12502
lthumb 0.286889 17.6649
rfemur -79.3966 -12.8977 24.686
rtibia 75.6572
rfoot -16.7072 -5.4325
rtoes -39.0585
lfemur 0.189741 -5.32714 -26.6136
ltibia 25.3444
lfoot -32.88 2.1208
ltoes -12.0078
304
root -11.9375 15.9712 -31.9773 -151.527 -29.1263 -186.862
lowerback 14.8796 -4.34931 -3.8399
upperback -0.966073 -6.29081 2.38918
thorax -8.68961 -2.80859 6.10651
lowerneck -21.6264 0.264466 -1.75679
upperneck 1.58017 -0.000915359 3.25413
head 3.84775 -0.0409817 1.28642
rclavicle -2.48481e-015 5.60573e-014
rhumerus -81.9195 3.42806 -83.2554
rradius 88.8533
rwrist -16.5438
rhand -29.6291 9.8914
rfingers 7.12502
rthumb -2.95924 -20.0678
lclavicle -2.48481e-015 5.60573e-014
lhumerus -23.1049 -17.879 95.0363
lradius 136.905
lwrist 12.3584
lhand -26.4191 -13.5977
lfingers 7.12502
lthumb 0.140926 16.382
rfemur -79.1717 -12.9967 25.3192
rtibia 76.1829
rfoot -15.8886 -5.55796
rtoes -37.5661
lfemur 0.997069 -5.71716 -26.1469
ltibia 25.1132
lfoot -31.6653 1.54975
ltoes -13.5586
305
root -12.039 15.9437 -32.2329 -151.437 -29.2711 -186.613
lowerback 14.8466 -4.44091 -3.4039
upperback -1.03378 -6.31514 2.63035
thorax -8.76051 -2.83109 6.13042
lowerneck -21.512 0.352023 -1.81631
upperneck 1.46179 0.145512 3.04814
head 3.78941 0.015256 1.24366
rclavicle 5.68524e-014 -2.08724e-014
rhumerus -83.5815 3.74457 -83.1433
rradius 90.5315
rwrist -16.3803
rhand -29.6427 10.6815
rfingers 7.12502
rthumb -2.97237 -19.2775
lclavicle 5.68524e-014 -2.08724e-014
lhumerus -23.3195 -18.849 94.8
lradius 139.292
lwrist 10.9874
lhand -26.5559 -14.7933
lfingers 7.12502
lthumb 0.00885431 15.1864
rfemur -78.7922 -12.9613 25.8941
rtibia 76.7364
rfoot -15.3098 -5.90558
rtoes -35.9323
lfemur 1.70216 -6.09037 -25.7386
ltibia 24.9918
lfoot -30.2324 1.01156
ltoes -15.2499
306
root -12.1436 15.9212 -32.4967 -151.342 -29.3148 -186.325
lowerback 14.7688 -4.4812 -2.98631
upperback -1.11227 -6.27563 2.85737
thorax -8.8253 -2.82309 6.13288
lowerneck -21.4015 0.425352 -1.88917
upperneck 1.35248 0.276189 2.84297
head 3.73516 0.0643423 1.20182
rclavicle 5.94366e-014 1.05356e-014
rhumerus -84.9715 3.92112 -82.9435
rradius 91.8783
rwrist -16.1534
rhand -29.6202 11.3935
rfingers 7.12502
rthumb -2.95066 -18.5659
lclavicle 5.94366e-014 1.05356e-014
lhumerus -23.7253 -19.8794 94.6317
lradius 141.236
lwrist 9.67864
lhand -26.6181 -15.8325
lfingers 7.12502
lthumb -0.0512643 14.1473
rfemur -78.2318 -12.8218 26.4381
rtibia 77.2611
rfoot -15.1148 -6.42231
rtoes -34.449
lfemur 2.29838 -6.43191 -25.3514
ltibia 25.01
lfoot -28.5551 0.519255
ltoes -17.0393
307
root -12.25 15.9037 -32.7664 -151.22 -29.2237 -186.051
lowerback 14.6797 -4.46069 -2.64809
upperback -1.20361 -6.17249 3.05249
thorax -8.90033 -2.7811 6.13246
lowerneck -21.3 0.487057 -1.96745
upperneck 1.24166 0.391645 2.63749
head 3.68236 0.105985 1.15932
rclavicle -5.30755e-014 -5.56597e-015
rhumerus -86.0413 3.94444 -82.6408
rradius 92.8759
rwrist -15.8262
rhand -29.5579 12.0222
rfingers 7.12502
rthumb -2.89047 -17.938
lclavicle -5.30755e-014 -5.56597e-015
lhumerus -24.3197 -20.9388 94.5501
lradius 142.681
lwrist 8.60316
lhand -26.5229 -16.6364
lfingers 7.12502
lthumb 0.0407311 13.3434
rfemur -77.5094 -12.5605 26.8691
rtibia 77.7145
rfoot -15.3512 -7.12466
rtoes -33.4355
lfemur 2.74427 -6.72129 -25.0436
ltibia 25.2064
lfoot -26.5869 0.0826768
ltoes -18.8275
